<svg xmlns="http://www.w3.org/2000/svg"><symbol id="sprite-icon-facebook" viewBox="0 0 512 512"><title>icon-facebook</title><path d="M384 .1L317.6 0C243 0 194.8 49.5 194.8 126v58.1H128c-5.8 0-10.4 4.7-10.4 10.4v84.2c0 5.8 4.7 10.4 10.4 10.4h66.8v212.4c0 5.8 4.7 10.4 10.4 10.4h87.1c5.8 0 10.4-4.7 10.4-10.4V289.2h78.1c5.8 0 10.4-4.7 10.4-10.4v-84.2c0-2.8-1.1-5.4-3.1-7.4s-4.6-3.1-7.4-3.1h-78.1v-49.2c0-23.7 5.6-35.7 36.5-35.7h44.7c5.8 0 10.4-4.7 10.4-10.4V10.5C394.4 4.8 389.7.1 384 .1z"/></symbol><symbol id="sprite-icon-instagram" viewBox="0 0 512 512"><title>icon-instagram</title><path data-name="Pfad 543" d="M373.406 0H138.594C62.172 0 0 62.172 0 138.594V373.41C0 449.828 62.172 512 138.594 512H373.41C449.828 512 512 449.828 512 373.41V138.594C512 62.172 449.828 0 373.406 0zM256 396c-77.2 0-140-62.8-140-140s62.8-140 140-140 140 62.8 140 140-62.8 140-140 140zm143.344-246.98a41.369 41.369 0 1141.371-41.367 41.411 41.411 0 01-41.371 41.367zm0 0"/></symbol><symbol id="sprite-icon-linkedin" viewBox="0 0 512 512"><title>icon-linkedin</title><path d="M475.074 0H36.926C16.53 0 0 16.531 0 36.926v438.148C0 495.47 16.531 512 36.926 512h438.148C495.47 512 512 495.469 512 475.074V36.926C512 16.53 495.469 0 475.074 0zM181.61 387h-62.347V199.426h62.347zm-31.172-213.188h-.406c-20.922 0-34.453-14.402-34.453-32.402 0-18.406 13.945-32.41 35.274-32.41 21.328 0 34.453 14.004 34.859 32.41 0 18-13.531 32.403-35.274 32.403zM406.423 387h-62.34V286.652c0-25.218-9.027-42.418-31.586-42.418-17.223 0-27.48 11.602-31.988 22.801-1.649 4.008-2.051 9.61-2.051 15.215V387h-62.344s.817-169.977 0-187.574h62.344v26.558c8.285-12.78 23.11-30.96 56.188-30.96 41.02 0 71.777 26.808 71.777 84.421zm0 0"/></symbol></svg>