<svg xmlns="http://www.w3.org/2000/svg" xmlns:xlink="http://www.w3.org/1999/xlink"><symbol id="icon-facebook" viewBox="0 0 512 512">
<g>
	<path d="M384,0.1L317.6,0C243,0,194.8,49.5,194.8,126v58.1H128c-5.8,0-10.4,4.7-10.4,10.4v84.2c0,5.8,4.7,10.4,10.4,10.4h66.8
		v212.4c0,5.8,4.7,10.4,10.4,10.4h87.1c5.8,0,10.4-4.7,10.4-10.4V289.2h78.1c5.8,0,10.4-4.7,10.4-10.4l0-84.2c0-2.8-1.1-5.4-3.1-7.4
		c-2-2-4.6-3.1-7.4-3.1h-78.1v-49.2c0-23.7,5.6-35.7,36.5-35.7l44.7,0c5.8,0,10.4-4.7,10.4-10.4V10.5C394.4,4.8,389.7,0.1,384,0.1z"/>
</g>
</symbol><symbol id="icon-instagram" viewBox="0 0 512 512">
  <path id="Pfad_543" data-name="Pfad 543" d="M373.406,0H138.594C62.172,0,0,62.172,0,138.594V373.41C0,449.828,62.172,512,138.594,512H373.41C449.828,512,512,449.828,512,373.41V138.594C512,62.172,449.828,0,373.406,0ZM256,396c-77.2,0-140-62.8-140-140s62.8-140,140-140,140,62.8,140,140S333.2,396,256,396ZM399.344,149.02a41.369,41.369,0,1,1,41.371-41.367A41.411,41.411,0,0,1,399.344,149.02Zm0,0"/>
</symbol><symbol id="icon-linkedin" viewBox="0 0 512 512"><path d="m475.074219 0h-438.148438c-20.394531 0-36.925781 16.53125-36.925781 36.925781v438.148438c0 20.394531 16.53125 36.925781 36.925781 36.925781h438.148438c20.394531 0 36.925781-16.53125 36.925781-36.925781v-438.148438c0-20.394531-16.53125-36.925781-36.925781-36.925781zm-293.464844 387h-62.347656v-187.574219h62.347656zm-31.171875-213.1875h-.40625c-20.921875 0-34.453125-14.402344-34.453125-32.402344 0-18.40625 13.945313-32.410156 35.273437-32.410156 21.328126 0 34.453126 14.003906 34.859376 32.410156 0 18-13.53125 32.402344-35.273438 32.402344zm255.984375 213.1875h-62.339844v-100.347656c0-25.21875-9.027343-42.417969-31.585937-42.417969-17.222656 0-27.480469 11.601563-31.988282 22.800781-1.648437 4.007813-2.050781 9.609375-2.050781 15.214844v104.75h-62.34375s.816407-169.976562 0-187.574219h62.34375v26.558594c8.285157-12.78125 23.109375-30.960937 56.1875-30.960937 41.019531 0 71.777344 26.808593 71.777344 84.421874zm0 0"/></symbol></svg>