<svg id="instagram" xmlns="http://www.w3.org/2000/svg" width="512" height="512" viewBox="0 0 512 512">
  <path id="Pfad_543" data-name="Pfad 543" d="M373.406,0H138.594C62.172,0,0,62.172,0,138.594V373.41C0,449.828,62.172,512,138.594,512H373.41C449.828,512,512,449.828,512,373.41V138.594C512,62.172,449.828,0,373.406,0ZM256,396c-77.2,0-140-62.8-140-140s62.8-140,140-140,140,62.8,140,140S333.2,396,256,396ZM399.344,149.02a41.369,41.369,0,1,1,41.371-41.367A41.411,41.411,0,0,1,399.344,149.02Zm0,0"/>
</svg>
